<svg data-v-0dd9719b="" version="1.0" xmlns="http://www.w3.org/2000/svg" xmlns:xlink="http://www.w3.org/1999/xlink" width="100%" height="100%" viewBox="0 0 340.000000 250.000000" preserveAspectRatio="xMidYMid meet" color-interpolation-filters="sRGB" style="margin: auto;"> <rect data-v-0dd9719b="" x="0" y="0" width="100%" height="100%" fill="#fff" fill-opacity="1" class="background"></rect> <rect data-v-0dd9719b="" x="0" y="0" width="100%" height="100%" fill="url(#watermark)" fill-opacity="1" class="watermarklayer"></rect> <g data-v-0dd9719b="" fill="#03bae3" class="icon-text-wrapper icon-svg-group iconsvg" transform="translate(64.02499389648438,93.69423484802246)"><g class="iconsvg-imagesvg" transform="translate(0,0)"><g><rect fill="#03bae3" fill-opacity="0" stroke-width="2" x="0" y="0" width="60" height="62.61152678208058" class="image-rect"></rect> <svg x="0" y="0" width="60" height="62.61152678208058" filtersec="colorsb9946085957" class="image-svg-svg primary" style="overflow: visible;"><svg xmlns="http://www.w3.org/2000/svg" viewBox="0 0 58.35000228881836 60.88999938964844"><g><path d="M0 31.55l15.22 13.22h27.16l3.06 2.79-2.35 2.6H15.22L3.84 40v6.38l10.52 9.24H45l7.13-7.84L42.41 39H15.22L0 25.16V13.41L12.14 0l31.4.13 14.81 13.4v16.32L43.48 16.76h-27.4L12.84 14l2.35-2.6h28.24L54.51 21v-6L43.75 5.59H13.89l-7.61 8.14 9.91 9h27.2l14.84 13.41.11.1v12L46.82 60.89H14.4L0 47.89V31.51zm3.83-7.91l11.47 9.92h27.15l12.18 11V38.2L43.25 28.1H16.11L3.82 16.92v6.73z" fill="#03bae3"></path></g></svg></svg> <!----></g></g> <g transform="translate(67,0.5295143127441406)"><g data-gra="path-name" fill-rule="" class="tp-name iconsvg-namesvg" transform="translate(0,0)"><g transform="scale(1)"><g><path d="M13.7-25.6L27.85-25.6 27.85-10.8 16.35-10.8 16.35-16.75 19.7-16.75 19.7-19.5 13.7-19.5 13.7-10.8 3.9-10.8 3.9-17.3 5.6-17.3 5.6-34.85 29-34.85 27.75-38.4 36.2-38.4 37.45-34.85 38.7-34.85 37.55-38.4 43.55-38.4 44.7-34.85 46.5-34.85 46.5-28.7 39.6-28.7 41.5-23.2 46.5-25.6 46.5-19.3 43.4-17.8 46.15-10.1 37.8-10.1 36.25-14.35 29.1-10.9 29.1-17.25 34.35-19.75 31.15-28.7 13.7-28.7 13.7-25.6ZM4.4-9.15L45.5-9.15 45.5 2.1 47 2.1 47 8.2 2.9 8.2 2.9 2.1 4.4 2.1 4.4-9.15ZM23.05-2.7L23.05 2.1 26.8 2.1 26.8-2.7 23.05-2.7ZM34.05-2.7L34.05 2.1 37.35 2.1 37.35-2.7 34.05-2.7ZM12.55-2.7L12.55 2.1 15.85 2.1 15.85-2.7 12.55-2.7ZM57.15-3.8L65.25-3.8 65.25 0.35 70.85 0.35 70.85-6 53.95-6 53.95-13.6 70.85-13.6 70.85-18.65 64.35-18.65 63.9-16.8 52.9-16.8 52.9-24.4 55.9-24.4 59.3-37.6 90.3-37.6 93.65-24.4 96.7-24.4 96.7-16.8 85.85-16.8 85.35-18.65 78.9-18.65 78.9-13.6 95.8-13.6 95.8-6 78.9-6 78.9 0.35 84.55 0.35 84.55-3.8 92.65-3.8 92.65 0.35 97.65 0.35 97.65 7.9 52.1 7.9 52.1 0.35 57.15 0.35 57.15-3.8ZM67.25-30L66.3-26.25 83.4-26.25 82.45-30 67.25-30ZM139.15 0.55L147.65 0.55 147.65 8.1 132.25 8.1 128.65-2.35 102.2 8.1 102.2-0.15 126.15-9.65 121.1-24.2 102.2-24.2 102.2-31.8 118.5-31.8 116.45-37.75 125.9-37.75 127.95-31.8 136.15-31.8 134.25-37.75 142.85-37.75 144.7-31.8 147.85-31.8 147.85-24.2 130.55-24.2 134.45-12.95 147.85-18.25 147.85-9.95 137-5.65 139.15 0.55Z" transform="translate(-2.9000000953674316, 38.400001525878906)"></path></g> <!----> <!----> <!----> <!----> <!----> <!----> <!----></g></g> <g data-gra="path-slogan" fill-rule="" class="tp-slogan iconsvg-slogansvg" fill="#03bae3" transform="translate(27.84918212890625,52.60000228881836)"><!----> <!----> <g transform="scale(1, 1)"><g transform="scale(1)"><path d="M7.17-6.09L7.17-6.09L6.09-6.09Q6-7.73 3.94-7.83L3.94-7.83Q2.02-7.78 2.02-6.33L2.02-6.33Q2.02-5.39 3.05-5.25L3.05-5.25L5.48-4.69Q7.41-4.22 7.41-2.34L7.41-2.34Q7.36 0.05 4.03 0.14L4.03 0.14Q2.20 0.14 1.45-0.61L1.45-0.61Q0.52-1.31 0.56-2.77L0.56-2.77L1.69-2.77Q1.73-0.80 4.03-0.75L4.03-0.75Q6.28-0.80 6.33-2.20L6.33-2.20Q6.52-3.38 4.45-3.75L4.45-3.75L2.67-4.13Q0.84-4.64 0.84-6.19L0.84-6.19Q0.98-8.72 3.84-8.81L3.84-8.81Q7.08-8.81 7.17-6.09ZM10.03-5.06L14.53-5.06L14.53-8.58L15.70-8.58L15.70 0L14.53 0L14.53-3.98L10.03-3.98L10.03 0L8.86 0L8.86-8.58L10.03-8.58L10.03-5.06ZM18.80-1.03L23.95-1.03L23.95 0L17.63 0L17.63-8.58L23.86-8.58L23.86-7.59L18.80-7.59L18.80-4.92L23.48-4.92L23.48-3.89L18.80-3.89L18.80-1.03ZM26.86-8.58L31.17-1.64L31.17-8.58L32.30-8.58L32.30 0L30.98 0L26.63-6.94L26.58-6.94L26.58 0L25.45 0L25.45-8.58L26.86-8.58ZM40.50-3.61L37.88-3.61L37.88-4.59L41.63-4.59L41.63 0L40.88 0L40.59-1.08Q39.61 0.09 37.78 0.14L37.78 0.14Q36.05 0.14 35.11-0.75L35.11-0.75Q33.70-2.06 33.75-4.36L33.75-4.36Q34.08-8.63 37.83-8.81L37.83-8.81Q41.02-8.63 41.48-6L41.48-6L40.36-6Q39.89-7.78 37.78-7.83L37.78-7.83Q35.11-7.64 34.97-4.31L34.97-4.31Q34.97-0.75 37.83-0.75L37.83-0.75Q38.86-0.75 39.61-1.31L39.61-1.31Q40.55-2.06 40.50-3.61L40.50-3.61ZM46.03-1.92L46.03-2.77L47.11-2.77L47.11-2.16Q47.11-0.75 48.42-0.75L48.42-0.75Q49.78-0.75 49.78-2.25L49.78-2.25L49.78-8.58L50.95-8.58L50.95-2.30Q50.91 0.09 48.47 0.14L48.47 0.14Q46.17 0.09 46.03-1.92L46.03-1.92ZM52.92-8.58L54.09-8.58L54.09 0L52.92 0L52.92-8.58ZM57.47-8.58L61.78-1.64L61.78-8.58L62.91-8.58L62.91 0L61.59 0L57.23-6.94L57.19-6.94L57.19 0L56.06 0L56.06-8.58L57.47-8.58ZM71.11-3.61L68.48-3.61L68.48-4.59L72.23-4.59L72.23 0L71.48 0L71.20-1.08Q70.22 0.09 68.39 0.14L68.39 0.14Q66.66 0.14 65.72-0.75L65.72-0.75Q64.31-2.06 64.36-4.36L64.36-4.36Q64.69-8.63 68.44-8.81L68.44-8.81Q71.63-8.63 72.09-6L72.09-6L70.97-6Q70.50-7.78 68.39-7.83L68.39-7.83Q65.72-7.64 65.58-4.31L65.58-4.31Q65.58-0.75 68.44-0.75L68.44-0.75Q69.47-0.75 70.22-1.31L70.22-1.31Q71.16-2.06 71.11-3.61L71.11-3.61ZM80.44-3.61L77.81-3.61L77.81-4.59L81.56-4.59L81.56 0L80.81 0L80.53-1.08Q79.55 0.09 77.72 0.14L77.72 0.14Q75.98 0.14 75.05-0.75L75.05-0.75Q73.64-2.06 73.69-4.36L73.69-4.36Q74.02-8.63 77.77-8.81L77.77-8.81Q80.95-8.63 81.42-6L81.42-6L80.30-6Q79.83-7.78 77.72-7.83L77.72-7.83Q75.05-7.64 74.91-4.31L74.91-4.31Q74.91-0.75 77.77-0.75L77.77-0.75Q78.80-0.75 79.55-1.31L79.55-1.31Q80.48-2.06 80.44-3.61L80.44-3.61ZM84.66-1.03L89.81-1.03L89.81 0L83.48 0L83.48-8.58L89.72-8.58L89.72-7.59L84.66-7.59L84.66-4.92L89.34-4.92L89.34-3.89L84.66-3.89L84.66-1.03Z" transform="translate(-0.5602678571428572, 8.8125)"></path></g></g></g></g></g><defs v-gra="od"></defs></svg>